<svg xmlns="http://www.w3.org/2000/svg" viewBox="0 0 128 128" width="128" height="128">
  <g>
    <circle fill="#61DAFB" cx="64" cy="64" r="64"/>
    <path fill="#fff" d="M92 64c0 18.1-14.8 32.7-32.9 32.7C41.1 96.7 27 82.1 27 64c0-11.4 7.3-21.1 17.4-24.8-.4-.9-.8-1.8-1.1-2.7-6.5 3.1-10.9 9.8-10.9 17.5 0 11 9 20 20 20 4.7 0 9-1.6 12.4-4.3.3.1.5.2.8.4 3.5 2.2 7.7 3.5 12.3 3.5 13.2 0 24-10.8 24-24s-10.8-24-24-24c-8.7 0-16.4 4.6-20.8 11.5-.3-.2-.5-.4-.8-.6-3.6-3.6-8.5-5.9-13.9-5.9-11 0-20 9-20 20 0 8.3 5 15.5 12.1 18.8-.2 1.1-.4 2.3-.4 3.5 0 13.3 10.7 24 24 24 5.2 0 10.1-1.7 14.1-4.6.2.4.5.7.7 1.1 1.3 1.7 3 3 4.9 3.8-.3.9-.7 1.7-1.1 2.5-1.8 3.1-4.9 5.3-8.6 5.3-.4 0-.7 0-1.1-.1-3.1-.7-5.6-3-6.3-6.1-.1-.7-.1-1.4-.1-2.1 0-1.9.3-3.7.9-5.4-6.3-1.8-10.9-7.7-10.9-14.7 0-8.3 6.7-15 15-15 4.3 0 8.2 1.8 10.9 4.6 1.8-.7 3.8-1.1 5.9-1.1 3.9 0 7.5 1.7 9.9 4.4 1.2-.6 2.5-1.1 3.8-1.5-1.2-4.1-4.7-7.1-9-7.1-2.3 0-4.5.9-6.1 2.4-.9-3.2-3.8-5.6-7.2-5.6-4.1 0-7.4 3.3-7.4 7.4 0 .3 0 .5.1.8-6.3 1.2-11 6.8-11 13.5 0 6.8 5.4 12.3 12.1 12.6-.4.3-.8.5-1.2.8-1.7 1.4-3.9 2.3-6.3 2.3-5.5 0-10-4.5-10-10 0-.3 0-.7.1-1 1.6-.5 3.1-1.2 4.6-2.1 1.5-.9 2.9-1.9 4.3-3 .6-.5 1.1-1.1 1.7-1.6.7-.7 1.3-1.4 1.9-2.1 2.6-2.6 5.7-4.7 9.2-6.2-.4-.3-.8-.6-1.2-.9C90 46.4 92 55.7 92 64z"/>
  </g>
</svg>
